<mxfile host="app.diagrams.net" modified="2023-05-08T18:05:03.953Z" agent="Mozilla/5.0 (Windows NT 10.0; Win64; x64) AppleWebKit/537.36 (KHTML, like Gecko) Chrome/112.0.0.0 Safari/537.36" version="21.2.9" etag="FnP22tJ1KLz7nyBDxA5q" type="github">
  <diagram name="Halaman-1" id="zBBdM4n8Wog7IofghNFx">
    <mxGraphModel>
      <root>
        <mxCell id="0" />
        <mxCell id="1" parent="0" />
      </root>
    </mxGraphModel>
  </diagram>
</mxfile>
